<svg width="45" height="45" viewBox="0 0 45 45" fill="none" xmlns="http://www.w3.org/2000/svg">
<path d="M40.7631 12.1306C40.5496 11.3383 40.1322 10.6156 39.5526 10.0347C38.9729 9.45376 38.2513 9.03475 37.4594 8.81939C34.5231 8.01314 22.7763 8.00001 22.7763 8.00001C22.7763 8.00001 11.0313 7.98689 8.09313 8.75751C7.30174 8.98279 6.58154 9.40772 6.00169 9.99152C5.42183 10.5753 5.00179 11.2984 4.78188 12.0913C4.0075 15.0275 4 21.1175 4 21.1175C4 21.1175 3.9925 27.2375 4.76125 30.1438C5.1925 31.7506 6.45813 33.02 8.06688 33.4531C11.0331 34.2594 22.7481 34.2725 22.7481 34.2725C22.7481 34.2725 34.495 34.2856 37.4313 33.5169C38.2234 33.3019 38.9458 32.8839 39.5269 32.3041C40.1079 31.7243 40.5276 31.003 40.7444 30.2113C41.5206 27.2769 41.5263 21.1888 41.5263 21.1888C41.5263 21.1888 41.5638 15.0669 40.7631 12.1306ZM19.0188 26.7594L19.0281 15.5094L28.7913 21.1438L19.0188 26.7594Z" fill="#F7D7FF"/>
</svg>
